<?xml version="1.0" encoding="utf-8"?>
<!-- Generator: Adobe Illustrator 18.0.0, SVG Export Plug-In . SVG Version: 6.00 Build 0)  -->
<!DOCTYPE svg PUBLIC "-//W3C//DTD SVG 1.1//EN" "http://www.w3.org/Graphics/SVG/1.1/DTD/svg11.dtd">
<svg version="1.1" id="Слой_1" xmlns="http://www.w3.org/2000/svg" xmlns:xlink="http://www.w3.org/1999/xlink" x="0px" y="0px"
	 viewBox="0 0 959.6 768" enable-background="new 0 0 959.6 768" xml:space="preserve">
<path fill="#000000"      d="
	M948,402.3l-4.3-8.6c1.9,0.2-16.1-39.4-16.1-39.4c-5.3-11.2-1.7-39.4-1.7-39.4c7.6-14.5-0.1-19.6-0.1-19.6
	c-0.9-32.3-37.5-83.6-37.5-83.6c0-0.1,0-0.2-0.1-0.3c5.9-8.5,12.8-22.6,12.8-22.6c-3.4,4.8-9.6,8-13.2,9.5c0-0.4,0.1-0.9,0.2-1.3
	c8.7-8.1,17.8-25.5,17.8-25.5c-2.3,1.6-8.2,3.7-12.8,5.3c0.2-0.6,0.4-1.2,0.6-1.8c9-5.8,13-12.2,13-12.2c-2.3,2.9-5.7,2.9-8.9,2
	c4.9-11.4,9.8-19.6,9.8-19.6c-10.9-6-49.4,29.2-49.4,29.2l-1.5-12.1c-1.1-9-17,6.7-17,6.7s-16.2-9.7-37.8-9c0,0,4.2,2.3,5.1,6.1
	c0.9,3.9-19.1-0.2-21.4-10.5l-2.1,6.5c0,0-17-6.2-18.2-13.9c0,0,0.4,7.1,0.6,11.6c0,0-8.8,6-31.3-20.3l0.6,15l-16.9-33.2l1.9,11.3
	c-14.4-20-100.8-95.2-100.8-95.2l1.3,6.9C592.4,18.4,501.6,4,501.6,4l12.5,8.1c0,0,0,0-3.8-1.9S465.3,4,465.3,4l4.4,4.4
	c-86.4-11.3-204.1,99.5-204.1,99.5C218,151.8,193,224.4,193,224.4c-14.4,10.6-25.7,30.7-25.7,30.7l8.1-1.3
	c-13.8,11.9-34.4,46.3-34.4,46.3l8.8-3.1l-8.1,9.4l16.3-7.5c-20,11.3-53.2,71.4-53.2,71.4l21.9-11.9c-13.8,7.5-51.3,72-51.3,72
	l11.3-3.8l-47,64.5l10-3.1L27,516.1l19.4-12.5C27,516.1,2,578.7,2,578.7l11.3-8.8c-20,30.7,4.6,68.7,4.6,68.7v-19.9
	c7.2,45.7,56.9,49.5,56.9,49.5c-2.5-12.5,3.9-21.2,3.9-21.2v12.4c13.1-15,11.4-36.3,11.4-36.3l4.6,10c6.3-18.2,0-46.3,0-46.3
	l5.6,11.3c-1.9-30.1,19.5-48.4,19.5-48.4l-2,14.6c7.5-10.6,25-55.1,25-55.1l3.8,10c1.3-13.1,17-38.8,17-38.8l0.6,11.3
	c0.6-11.3,16.3-36,16.3-36c1.3,2.8-5.6,19.1-5.6,19.1c13.1-10,26.3-41.3,26.3-41.3l0.7,8.8c-0.6-5,6.8-24.4,6.8-24.4l2.5,9.4
	c1.3-14.4,20.1-35.2,20.1-35.2v8.3c3.6-3.7,8.3-20.3,8.3-20.3v10.9c7.2-10,21.8-50.7,21.8-50.7l4.5,8.9v-20.1l4.6,13.8
	c-1.9-11.3,9.6-40.7,9.6-40.7c9.4,37.6,56.1,76.9,56.1,76.9v-11.1c2.4,12.5,25.8,47,25.8,47l3.2-18.2c6.9,20.7,0.6,37.6,0.6,37.6
	c-9.2,24.4-6.6,42.5-6.6,42.5l10.7-10.3c-6.6,6.6-9.5,26.8-9.5,26.8l7.4-4.9c-14.4,20.6-12.4,33.4-12.4,33.4
	c3.7,14,28.9,21.9,28.9,21.9c-3.3,19.8,10.7,28.5,10.7,28.5l37.9,39.6c6.6,14.4,57.3,40.8,57.3,40.8l4.1,3.7
	c10.7,18.6,18.1,11.1,18.1,11.1l4.5,2.9c0.8-4.9-5.4-13.2-5.4-13.2s-7.8-14.8-6.6-14c1.2,0.8,14,4.1,14,4.1
	c10.3,19,18.1,12.4,18.1,12.4l4.9,4.5c2.6-2.3,0-12.7,0-12.7c3.2-4-17-20.7-17-20.7l17,11.5c10.1,4,12.4,1.7,12.4,1.7l4.6,1.7
	c1.2-2.3-2.9-13.3-2.9-13.3l6.3,1.7c0.6-3.5-6.3-11.5-6.3-11.5c0-1.7-14.1-10.9-14.1-10.9c-6.6-8.1-22.2-9.8-22.2-9.8L485,586.1
	l6.9,0.6c7.5,4,21.9,2.3,21.9,2.3l3.5,3.5c2.9-2.9,0.6-6.3,0.6-6.3l8.1,4c10.4,8.1,20.7,6.3,20.7,6.3c2.3,2.9,6.4,2.9,6.4,2.9v-5.2
	l4.6,1.7c-1.7-12.1-18.5-19-18.5-19c-4-4.6-14.4-8.6-14.4-8.6l-23.6-3.5c-8.6-5.8-48.2-16.1-48.2-16.1c-6.1-9.8,0-38.7,0-38.7
	l2.4,7.5c10.7-10.4,13.9-42,13.9-42l3.1,11.5c5.2-6.3,11.6-31.8,11.6-31.8v14c8.3-18.4,12.6-57.6,12.6-57.6
	c2.3,5.2,2.8,19.6,2.8,19.6c8.1-13.8,2.3-52.4,2.3-52.4c4.6,1.2,23-0.6,23-0.6c-2.9,2.9-12.1,4-12.1,4c15.6,8.1,42.1,1.7,42.1,1.7
	c-10.4,17.9,7.5,75.5,7.5,75.5l4-14.4c-1.2,29.4,24.2,79.5,24.2,79.5l2.9-13.3c0.6,27.7,20.5,66.7,20.5,66.7v-16c3.6,19,28,49,28,49
	l-1.3-10.9c2.3,10.9,37.8,69.1,37.8,69.1c3.7,9.8,21,30.5,21,30.5c6.3,20.2,17.3,31.1,17.3,31.1l9.7,11.5
	c8.6,21.3,23.7,21.4,23.7,21.4l6.3,3.4c2.3-4.6-13.8-27.1-13.8-27.1c5.2,0,13.8,4.6,13.8,4.6c12.7,12.1,25.4,15,25.4,15
	c8.1,3.5,16.1-7.5,16.1-7.5c7.5-2.9-6.9-15.6-6.9-15.6c0-6.9-30-27.1-30-27.1c-2.3-1.2-30.5-36.3-30.5-36.3
	c-18.4-23-45.5-102-45.5-102l7.5,4.6c-6.3-11.5-16.5-46.7-16.5-46.7l10.1,8.6c-14.4-25.9-9.2-70.9-9.2-70.9
	c2.3-17.3,25.4-5.2,25.4-5.2c-2.3-6.9-10.9-11.5-10.9-11.5c20.7-2.3,28.8,27.7,28.8,27.7l5.2-12.7c0,58.8,21.9,66.8,21.9,66.8
	l1.7-15c-1.7,15,16.1,46.7,16.1,46.7l2.9-7.5c6.9,25.9,16.7,39.2,16.7,39.2l0.6-7.5c9.2,12.7,24.2,55.9,24.2,55.9
	c13.6,34.6,22.1,40.9,22.1,40.9c7.5,5.2,24.5,9.2,24.5,9.2c2.9,1.7,12.1,2.9,12.1,2.9c0.3-2.4-1.1-3.7-2.4-4.5
	c14.6,5.9,31.8,1.6,31.8,1.6c1.7,1.2,11.5,2.9,11.5,2.9c0-5.2-4-6.3-4-6.3c-1.2-8.1-24.2-15-24.2-15c-12.1-6.9-30.9-38-30.9-38
	c-8.4-13.3-24.4-58.8-24.4-58.8c0-19.6-14.4-85.8-14.4-85.8l8.1,7.5c-4.6-4-10.4-43.2-10.4-43.2l6.3,4.6
	c-13.8-35.7,6.3-42.6,6.3-42.6c1.2,8.6,7.3,16,7.3,16c2.5-21.1,11.3-19.1,11.3-19.1c-5.9,2.9-3,12.9-3,12.9
	c7.2-7.6,41.8-1.7,41.8-1.7c13,10.6,23.9,2.1,23.9,2.1c8.6,9.6,28.7,4.4,28.7,4.4c7.2,4.4,20.6-3.9,20.6-3.9
	C971.3,418.2,948,402.3,948,402.3z"/>
</svg>
